<svg width="30" height="30" viewBox="0 0 30 30" fill="none" xmlns="http://www.w3.org/2000/svg">
<path d="M20.2917 23.7144C19.2311 23.7144 18.375 22.6878 18.375 21.4167C18.375 20.1578 19.2311 19.1311 20.2917 19.1311C21.3522 19.1311 22.2083 20.1578 22.2083 21.4167C22.2083 22.6878 21.3522 23.7144 20.2917 23.7144ZM15.5 14.0833C13.9156 14.0833 12.625 13.0567 12.625 11.7978C12.625 10.5267 13.9156 9.5 15.5 9.5C17.0845 9.5 18.375 10.5267 18.375 11.7978C18.375 13.0567 17.0845 14.0833 15.5 14.0833ZM10.7083 23.7144C9.64779 23.7144 8.79168 22.6878 8.79168 21.4167C8.79168 20.1578 9.64779 19.1311 10.7083 19.1311C11.7689 19.1311 12.625 20.1578 12.625 21.4167C12.625 22.6878 11.7689 23.7144 10.7083 23.7144ZM15.5 10.4167C16.0239 10.4167 16.4583 10.8322 16.4583 11.3333C16.4583 11.8344 16.0239 12.25 15.5 12.25C14.9761 12.25 14.5417 11.8344 14.5417 11.3333C14.5417 10.8322 14.9761 10.4167 15.5 10.4167ZM24.125 15C23.7161 15 23.32 15.0856 22.9622 15.2444C22.3489 14.4989 21.5183 13.8633 20.5217 13.3744C21.25 12.3967 21.6844 11.2111 21.6844 9.92778V9.85444C23.0772 9.57333 24.125 8.38778 24.125 6.95778C24.125 5.33222 22.7322 4 21.0328 4C20.1511 4 19.3333 4.35444 18.7967 4.91667C17.811 4.318 16.6676 4.00009 15.5 4.00009C14.3324 4.00009 13.189 4.318 12.2033 4.91667C11.6667 4.35444 10.8489 4 9.96723 4C8.26779 4 6.87501 5.33222 6.87501 6.95778C6.87501 8.37556 7.92279 9.56111 9.30279 9.85444V9.92778C9.30279 11.2111 9.75001 12.4089 10.4656 13.3744C9.48168 13.8633 8.65112 14.4989 8.03779 15.2444C7.60113 15.0563 7.12209 14.976 6.64456 15.0108C6.16702 15.0456 5.70626 15.1945 5.30448 15.4438C4.9027 15.6932 4.57275 16.0349 4.34484 16.4378C4.11694 16.8407 3.99838 17.2919 4.00002 17.75C4.00002 19.2778 5.27779 20.5 6.87501 20.5H6.95168C6.90057 20.7933 6.87501 21.1111 6.87501 21.4167C6.87501 23.9467 8.58724 26 10.7083 26C11.9989 26 13.1361 25.23 13.8389 24.0567C14.3756 24.13 14.925 24.1667 15.5 24.1667C16.075 24.1667 16.6245 24.13 17.1611 24.0567C17.8639 25.23 19.0011 26 20.2917 26C22.4128 26 24.125 23.9467 24.125 21.4167C24.125 21.1111 24.0994 20.7933 24.0483 20.5H24.125C25.7222 20.5 27 19.2778 27 17.75C27 16.2222 25.7222 15 24.125 15Z" fill="#BABABA"/>
</svg>
