<svg width="30" height="30" viewBox="0 0 30 30" fill="none" xmlns="http://www.w3.org/2000/svg">
<path d="M23.75 2.5H6.25C4.1825 2.5 2.5 4.1825 2.5 6.25V9.78875C2.5 11.105 2.9775 12.3012 3.75 13.2212V25C3.75 25.3315 3.8817 25.6495 4.11612 25.8839C4.35054 26.1183 4.66848 26.25 5 26.25H15C15.3315 26.25 15.6495 26.1183 15.8839 25.8839C16.1183 25.6495 16.25 25.3315 16.25 25V18.75H21.25V25C21.25 25.3315 21.3817 25.6495 21.6161 25.8839C21.8505 26.1183 22.1685 26.25 22.5 26.25H25C25.3315 26.25 25.6495 26.1183 25.8839 25.8839C26.1183 25.6495 26.25 25.3315 26.25 25V13.22C27.0225 12.3013 27.5 11.105 27.5 9.7875V6.25C27.5 4.1825 25.8175 2.5 23.75 2.5ZM25 6.25V9.78875C25 11.2137 23.9387 12.4288 22.6362 12.4975L22.5 12.5C21.1212 12.5 20 11.3788 20 10V5H23.75C24.44 5 25 5.56125 25 6.25ZM12.5 10V5H17.5V10C17.5 11.3788 16.3788 12.5 15 12.5C13.6212 12.5 12.5 11.3788 12.5 10ZM5 6.25C5 5.56125 5.56 5 6.25 5H10V10C10 11.3788 8.87875 12.5 7.5 12.5L7.36375 12.4962C6.06125 12.4287 5 11.2137 5 9.78875V6.25ZM12.5 20H7.5V16.25H12.5V20Z" fill="#BABABA"/>
</svg>
