<svg width="30" height="30" viewBox="0 0 30 30" fill="none" xmlns="http://www.w3.org/2000/svg">
<path d="M4.28125 25L2.5 23.25L7.625 18.125C8.27083 17.4791 8.71333 16.6716 8.9525 15.7025C9.1925 14.7341 9.3125 13.25 9.3125 11.25C9.3125 10.0416 9.58333 8.85413 10.125 7.68746C10.6667 6.5208 11.4375 5.43746 12.4375 4.43746C14.3333 2.54163 16.4271 1.46871 18.7188 1.21871C21.0104 0.968713 22.8958 1.60413 24.375 3.12496C25.875 4.62496 26.5 6.5208 26.25 8.81246C26 11.1041 24.9375 13.1875 23.0625 15.0625C22.0625 16.0625 20.9792 16.8333 19.8125 17.375C18.6458 17.9166 17.4583 18.1875 16.25 18.1875C14.2292 18.1875 12.75 18.302 11.8125 18.5312C10.875 18.7604 10.0729 19.2083 9.40625 19.875L4.28125 25ZM12.875 14.5625C13.8542 15.5208 15.1771 15.875 16.8438 15.625C18.5104 15.375 20 14.5937 21.3125 13.2812C22.6458 11.9479 23.4429 10.4529 23.7037 8.79621C23.9637 7.14038 23.6042 5.84371 22.625 4.90621C21.625 3.90621 20.3179 3.53121 18.7038 3.78121C17.0888 4.03121 15.6042 4.82288 14.25 6.15621C12.9375 7.46871 12.1408 8.9533 11.86 10.61C11.5783 12.2658 11.9167 13.5833 12.875 14.5625ZM22.5 28.75C21.125 28.75 19.9479 28.2604 18.9688 27.2812C17.9896 26.302 17.5 25.125 17.5 23.75C17.5 22.375 17.9896 21.1979 18.9688 20.2187C19.9479 19.2395 21.125 18.75 22.5 18.75C23.875 18.75 25.0521 19.2395 26.0313 20.2187C27.0104 21.1979 27.5 22.375 27.5 23.75C27.5 25.125 27.0104 26.302 26.0313 27.2812C25.0521 28.2604 23.875 28.75 22.5 28.75Z" fill="#BABABA"/>
</svg>
