<svg width="30" height="30" viewBox="0 0 30 30" fill="none" xmlns="http://www.w3.org/2000/svg">
<path d="M6.25001 16.475V19.9875C6.25001 20.9 6.75001 21.75 7.55001 22.1875L13.8 25.6C14.55 26.0125 15.45 26.0125 16.2 25.6L22.45 22.1875C23.25 21.75 23.75 20.9 23.75 19.9875V16.475L16.2 20.6C15.45 21.0125 14.55 21.0125 13.8 20.6L6.25001 16.475ZM13.8 4.39998L3.26251 10.15C2.40001 10.625 2.40001 11.875 3.26251 12.35L13.8 18.1C14.55 18.5125 15.45 18.5125 16.2 18.1L26.25 12.6125V20C26.25 20.6875 26.8125 21.25 27.5 21.25C28.1875 21.25 28.75 20.6875 28.75 20V11.9875C28.75 11.525 28.5 11.1125 28.1 10.8875L16.2 4.39998C15.8307 4.20301 15.4186 4.09998 15 4.09998C14.5814 4.09998 14.1693 4.20301 13.8 4.39998Z" fill="#BABABA"/>
</svg>
