<svg width="30" height="30" viewBox="0 0 30 30" fill="none" xmlns="http://www.w3.org/2000/svg">
<path d="M7.5 23.75C6.83696 23.75 6.20107 23.4866 5.73223 23.0178C5.26339 22.5489 5 21.913 5 21.25V16.25M7.5 23.75V25.625C7.5 25.7908 7.56585 25.9497 7.68306 26.0669C7.80027 26.1842 7.95924 26.25 8.125 26.25C8.29076 26.25 8.44973 26.1842 8.56694 26.0669C8.68415 25.9497 8.75 25.7908 8.75 25.625V23.75M7.5 23.75H8.75M5 16.25V8.75M5 16.25H15M8.75 23.75H21.25M22.5 23.75C23.163 23.75 23.7989 23.4866 24.2678 23.0178C24.7366 22.5489 25 21.913 25 21.25V16.25M22.5 23.75V25.625C22.5 25.7908 22.4342 25.9497 22.3169 26.0669C22.1997 26.1842 22.0408 26.25 21.875 26.25C21.7092 26.25 21.5503 26.1842 21.4331 26.0669C21.3158 25.9497 21.25 25.7908 21.25 25.625V23.75M22.5 23.75H21.25M25 16.25V8.75M25 16.25H15M5 8.75C5 7.42392 5.52678 6.15215 6.46447 5.21447C7.40215 4.27678 8.67392 3.75 10 3.75H20C21.3261 3.75 22.5979 4.27678 23.5355 5.21447C24.4732 6.15215 25 7.42392 25 8.75M5 8.75H15M15 16.25V8.75M25 8.75H15M10 20H10.0013" stroke="#BABABA" stroke-width="2" stroke-linecap="round" stroke-linejoin="round"/>
</svg>
