<svg width="30" height="30" viewBox="0 0 30 30" fill="none" xmlns="http://www.w3.org/2000/svg">
<path d="M6.25 7.5C5.89583 7.5 5.59875 7.38042 5.35875 7.14125C5.11958 6.90125 5 6.60417 5 6.25C5 5.89583 5.11958 5.59875 5.35875 5.35875C5.59875 5.11958 5.89583 5 6.25 5H23.75C24.1042 5 24.4008 5.11958 24.64 5.35875C24.88 5.59875 25 5.89583 25 6.25C25 6.60417 24.88 6.90125 24.64 7.14125C24.4008 7.38042 24.1042 7.5 23.75 7.5H6.25ZM6.25 25C5.89583 25 5.59875 24.88 5.35875 24.64C5.11958 24.4008 5 24.1042 5 23.75V17.5H4.78125C4.38542 17.5 4.0625 17.3488 3.8125 17.0463C3.5625 16.7446 3.47917 16.3958 3.5625 16L4.8125 9.75C4.875 9.45833 5.02083 9.21875 5.25 9.03125C5.47917 8.84375 5.73958 8.75 6.03125 8.75H23.9687C24.2604 8.75 24.5208 8.84375 24.75 9.03125C24.9792 9.21875 25.125 9.45833 25.1875 9.75L26.4375 16C26.5208 16.3958 26.4375 16.7446 26.1875 17.0463C25.9375 17.3488 25.6146 17.5 25.2187 17.5H25V23.75C25 24.1042 24.88 24.4008 24.64 24.64C24.4008 24.88 24.1042 25 23.75 25C23.3958 25 23.0992 24.88 22.86 24.64C22.62 24.4008 22.5 24.1042 22.5 23.75V17.5H17.5V23.75C17.5 24.1042 17.3804 24.4008 17.1413 24.64C16.9013 24.88 16.6042 25 16.25 25H6.25ZM7.5 22.5H15V17.5H7.5V22.5Z" fill="#BABABA"/>
</svg>
